<?xml version="1.0" encoding="utf-8"?>
<!-- Generator: Adobe Illustrator 24.3.0, SVG Export Plug-In . SVG Version: 6.00 Build 0)  -->
<svg version="1.1" id="图层_1" xmlns="http://www.w3.org/2000/svg" xmlns:xlink="http://www.w3.org/1999/xlink" x="0px" y="0px"
	 viewBox="0 0 595.28 841.89" style="enable-background:new 0 0 595.28 841.89;" xml:space="preserve">
<style type="text/css">
	.st0{fill:#898989;}
	.st1{fill:#FFFFFF;}
</style>
<rect x="77.99" y="259.81" class="st0" width="439.3" height="439.3"/>
<g>
	<path class="st1" d="M324.19,506.57c16.11-9.6,26.6-27.66,25.3-48.06c-1.68-26.37-23.39-47.5-49.79-48.52
		c-29.63-1.14-54.02,22.54-54.02,51.92c0,18.99,10.19,35.6,25.4,44.66c-24.36,9.66-42.21,32.2-45.13,59.23
		c-0.4,3.74,2.47,7.02,6.23,7.02h0c3.13,0,5.72-2.38,6.04-5.49c3.16-30.04,28.54-53.46,59.41-53.46s56.25,23.42,59.41,53.46
		c0.33,3.11,2.91,5.49,6.04,5.49h0c3.76,0,6.64-3.28,6.23-7.02C366.4,538.77,348.55,516.23,324.19,506.57z M258.13,464.48
		c-1.51-23.89,18.19-43.59,42.08-42.08c19.7,1.24,35.69,17.23,36.94,36.94c1.51,23.89-18.19,43.59-42.08,42.08
		C275.36,500.17,259.38,484.19,258.13,464.48z"/>
	<path class="st1" d="M384.16,352.16h-52.32l10.35-13.2c3.09-3.94,0.28-9.71-4.72-9.71l0,0c-2.21,0-4.29,1.01-5.65,2.75l-15.8,20.16
		h-37.31L262.91,332c-1.36-1.74-3.44-2.75-5.65-2.75h0c-5.01,0-7.81,5.77-4.72,9.71l10.35,13.2h-51.76
		c-13.77,0-24.94,11.16-24.94,24.94v236.54c0,13.77,11.16,24.94,24.94,24.94h173.04c13.77,0,24.94-11.16,24.94-24.94V377.1
		C409.1,363.32,397.93,352.16,384.16,352.16z M394.4,613.48c0,5.95-4.83,10.78-10.78,10.78H211.22c-5.95,0-10.78-4.83-10.78-10.78
		V377.63c0-5.95,4.83-10.78,10.78-10.78h63.17l13.17,16.8c1.36,1.74,3.44,2.75,5.65,2.75h0c5.01,0,7.81-5.77,4.72-9.71l-7.72-9.85
		h14.27h15.83h63.29c5.95,0,10.78,4.83,10.78,10.78V613.48z"/>
</g>
</svg>
