<?xml version="1.0" encoding="utf-8"?>
<!-- Generator: Adobe Illustrator 24.3.0, SVG Export Plug-In . SVG Version: 6.00 Build 0)  -->
<svg version="1.1" id="图层_1" xmlns="http://www.w3.org/2000/svg" xmlns:xlink="http://www.w3.org/1999/xlink" x="0px" y="0px"
	 viewBox="0 0 49.04 43.59" style="enable-background:new 0 0 49.04 43.59;" xml:space="preserve">
<style type="text/css">
	.st0{fill:#E94709;}
</style>
<path class="st0" d="M6.09,43.67c0.82,0,1.43-0.21,1.85-0.63c0.42-0.42,0.63-1.03,0.63-1.82V7.59c0-0.79-0.21-1.4-0.63-1.82
	C7.52,5.35,6.91,5.14,6.09,5.14H2.55c-0.84,0-1.47,0.21-1.9,0.63C0.22,6.19,0,6.8,0,7.59v33.63c0,0.79,0.22,1.4,0.65,1.82
	c0.43,0.42,1.06,0.63,1.9,0.63H6.09z"/>
<path class="st0" d="M23.52,12.54c-0.41-0.45-1.03-0.68-1.87-0.68H13.8c-0.79,0-1.41,0.23-1.84,0.68c-0.43,0.45-0.65,1.08-0.65,1.87
	v26.81c0,0.79,0.22,1.4,0.65,1.82c0.43,0.42,1.04,0.63,1.84,0.63h7.84c0.84,0,1.46-0.21,1.87-0.63s0.61-1.03,0.61-1.82V14.41
	C24.13,13.62,23.92,12.99,23.52,12.54z M20.9,38.94c-0.23,0.22-0.51,0.33-0.84,0.33h-4.57c-0.35,0-0.64-0.11-0.86-0.33
	s-0.33-0.51-0.33-0.86c0-0.33,0.1-0.61,0.31-0.84c0.21-0.23,0.5-0.35,0.88-0.35h4.57c0.79,0,1.19,0.4,1.19,1.19
	C21.25,38.43,21.13,38.71,20.9,38.94z M20.9,18.35c-0.23,0.24-0.51,0.36-0.84,0.36h-4.57c-0.38,0-0.67-0.12-0.88-0.36
	c-0.21-0.24-0.31-0.52-0.31-0.83c0-0.33,0.11-0.61,0.33-0.84c0.22-0.23,0.51-0.35,0.86-0.35h4.57c0.33,0,0.61,0.12,0.84,0.35
	c0.23,0.23,0.35,0.51,0.35,0.84C21.25,17.83,21.13,18.11,20.9,18.35z"/>
<path class="st0" d="M48.98,40.06l-6.42-32.1c-0.15-0.79-0.47-1.38-0.96-1.75s-1.14-0.46-1.95-0.26l-2.88,0.7
	c-0.1,0.02-0.18,0.05-0.26,0.08V2.33c0-1.65-0.84-2.48-2.52-2.48h-4.57c-1.68,0-2.52,0.83-2.52,2.48v38.89
	c0,1.63,0.84,2.45,2.52,2.45h4.57c1.68,0,2.52-0.82,2.52-2.45V18.31l4.7,23.4c0.15,0.77,0.47,1.33,0.96,1.69
	c0.49,0.35,1.14,0.43,1.95,0.23L47,43.01c0.79-0.15,1.36-0.49,1.69-0.99C49.02,41.51,49.12,40.86,48.98,40.06z"/>
</svg>
