<?xml version="1.0" encoding="utf-8"?>
<!-- Generator: Adobe Illustrator 24.3.0, SVG Export Plug-In . SVG Version: 6.00 Build 0)  -->
<svg version="1.1" id="图层_1" xmlns="http://www.w3.org/2000/svg" xmlns:xlink="http://www.w3.org/1999/xlink" x="0px" y="0px"
	 viewBox="0 0 44.2 56.7" style="enable-background:new 0 0 44.2 56.7;" xml:space="preserve">
<style type="text/css">
	.st0{fill:#E94709;}
</style>
<g>
	<path class="st0" d="M42.2,2c-1.3-1.3-3.3-2-5.9-2H7.9C5.3,0,3.3,0.7,2,2S0,5.4,0,8v40.7c0,2.7,0.7,4.7,2,6s3.3,2,5.9,2h28.3
		c2.6,0,4.6-0.7,5.9-2s2-3.3,2-6V8C44.2,5.4,43.5,3.4,42.2,2z M40.5,48.6c0,1.4-0.4,2.5-1.1,3.3s-1.9,1.1-3.4,1.1H8.1
		c-1.5,0-2.6-0.4-3.4-1.1c-0.8-0.8-1.1-1.9-1.1-3.3V8.1c0-1.4,0.4-2.5,1.1-3.3C5.5,4,6.6,3.6,8.1,3.6h27.9c1.5,0,2.6,0.4,3.4,1.1
		c0.8,0.8,1.1,1.9,1.1,3.3V48.6z"/>
	<path class="st0" d="M9.3,16.6h16.6c0.5,0,0.9-0.2,1.2-0.5c0.3-0.3,0.4-0.7,0.4-1.3v-4.7c0-0.5-0.1-1-0.4-1.3
		c-0.3-0.3-0.7-0.5-1.2-0.5H9.3c-0.5,0-0.9,0.2-1.2,0.5c-0.3,0.3-0.4,0.7-0.4,1.3v4.7c0,0.5,0.1,0.9,0.4,1.3
		C8.4,16.4,8.8,16.6,9.3,16.6z"/>
	<path class="st0" d="M34.9,18.9H9.3c-0.5,0-0.9,0.2-1.2,0.5c-0.3,0.3-0.4,0.7-0.4,1.3v4.7c0,0.5,0.1,0.9,0.4,1.3
		c0.3,0.3,0.7,0.5,1.2,0.5h25.6c0.5,0,0.9-0.2,1.2-0.5c0.3-0.3,0.4-0.8,0.4-1.3v-4.7c0-0.5-0.1-1-0.4-1.3S35.4,18.9,34.9,18.9z"/>
	<path class="st0" d="M30.4,29.5H9.3c-0.5,0-0.9,0.2-1.2,0.5c-0.3,0.3-0.4,0.7-0.4,1.2V36c0,0.5,0.1,1,0.4,1.3
		c0.3,0.3,0.7,0.5,1.2,0.5h21.1c0.5,0,0.9-0.2,1.2-0.5c0.3-0.3,0.4-0.7,0.4-1.3v-4.7c0-0.5-0.1-0.9-0.4-1.2
		C31.3,29.7,30.9,29.5,30.4,29.5z"/>
	<path class="st0" d="M21.5,40.1H9.3c-0.5,0-0.9,0.2-1.2,0.5c-0.3,0.3-0.4,0.7-0.4,1.3v4.7c0,0.5,0.1,0.9,0.4,1.3
		c0.3,0.3,0.7,0.5,1.2,0.5h12.2c0.5,0,0.9-0.2,1.2-0.5c0.3-0.3,0.4-0.7,0.4-1.3v-4.7c0-0.5-0.1-1-0.4-1.3
		C22.4,40.2,22,40.1,21.5,40.1z"/>
</g>
</svg>
