<?xml version="1.0" encoding="utf-8"?>
<!-- Generator: Adobe Illustrator 24.3.0, SVG Export Plug-In . SVG Version: 6.00 Build 0)  -->
<svg version="1.1" id="图层_1" xmlns="http://www.w3.org/2000/svg" xmlns:xlink="http://www.w3.org/1999/xlink" x="0px" y="0px"
	 viewBox="0 0 49.04 43.59" style="enable-background:new 0 0 49.04 43.59;" xml:space="preserve">
<style type="text/css">
	.st0{fill:#E94709;}
</style>
<g>
	<path class="st0" d="M29.33,31.91h10.35c1.96,0,3.65-0.36,5.04-1.08c1.4-0.72,2.47-1.71,3.21-2.95s1.11-2.65,1.11-4.21
		c0-1.3-0.25-2.51-0.74-3.64c-0.49-1.13-1.2-2.11-2.13-2.96c-0.93-0.85-2.04-1.52-3.34-2.01c0.02-2.18-0.32-4.19-1.03-6.02
		c-0.71-1.83-1.7-3.42-2.99-4.77s-2.79-2.4-4.5-3.15C32.6,0.37,30.75,0,28.76,0c-1.8,0-3.42,0.29-4.86,0.87
		c-1.44,0.58-2.7,1.36-3.79,2.34c-1.09,0.98-2.01,2.05-2.77,3.22c-1.13-0.32-2.28-0.36-3.45-0.12s-2.27,0.7-3.28,1.4
		S8.79,9.3,8.17,10.38s-0.94,2.3-0.95,3.68c-1.47,0.2-2.75,0.71-3.83,1.5c-1.08,0.8-1.91,1.82-2.5,3.07S0,21.27,0,22.81
		c0,1.26,0.23,2.44,0.68,3.55s1.11,2.07,1.98,2.9c0.87,0.83,1.93,1.48,3.17,1.95c1.24,0.47,2.66,0.71,4.24,0.71h9.65v-2.72h-9.67
		c-1.6,0-2.94-0.29-4.03-0.86s-1.91-1.34-2.47-2.3C3,25.07,2.72,24,2.72,22.81c0-1.27,0.26-2.4,0.78-3.4c0.52-1,1.27-1.79,2.26-2.36
		s2.18-0.87,3.58-0.87c0.24,0,0.35-0.13,0.35-0.38c0-1.48,0.25-2.72,0.74-3.7c0.49-0.98,1.15-1.73,1.97-2.26
		c0.82-0.52,1.74-0.83,2.76-0.92c1.01-0.09,2.03,0.02,3.05,0.32c0.23,0.06,0.39,0,0.49-0.18c0.64-1.15,1.42-2.2,2.33-3.16
		s1.99-1.73,3.26-2.31s2.76-0.87,4.48-0.87c1.62,0,3.1,0.3,4.46,0.89c1.36,0.59,2.54,1.41,3.55,2.44c1.01,1.03,1.81,2.22,2.4,3.57
		s0.93,2.78,1.02,4.31c0.03,0.42,0.04,0.87,0.02,1.34c-0.02,0.48-0.05,0.94-0.08,1.39c-0.02,0.24,0.08,0.38,0.29,0.43
		c1.8,0.41,3.23,1.18,4.3,2.33s1.6,2.56,1.6,4.26c0,1.06-0.25,2.01-0.75,2.85c-0.5,0.83-1.25,1.49-2.23,1.96s-2.21,0.71-3.66,0.71
		H29.33V31.91z"/>
	<path class="st0" d="M24.53,18.25c-0.37,0-0.69,0.13-0.95,0.39c-0.27,0.26-0.4,0.57-0.4,0.93v17.36l0.11,2.92l-1.23-1.27l-3.33-3.5
		c-0.25-0.28-0.56-0.41-0.94-0.41c-0.36,0-0.65,0.12-0.88,0.35c-0.23,0.23-0.35,0.51-0.35,0.85c0,0.18,0.04,0.35,0.11,0.49
		c0.07,0.14,0.17,0.28,0.29,0.4l6.58,6.4c0.16,0.16,0.32,0.28,0.48,0.35c0.16,0.07,0.32,0.1,0.5,0.1c0.16,0,0.32-0.03,0.48-0.1
		c0.16-0.07,0.32-0.18,0.48-0.35l6.57-6.4c0.13-0.12,0.23-0.26,0.3-0.4c0.07-0.14,0.1-0.31,0.1-0.49c0-0.34-0.12-0.62-0.35-0.85
		c-0.24-0.23-0.53-0.35-0.87-0.35c-0.38,0-0.69,0.14-0.92,0.41l-3.35,3.5l-1.21,1.26l0.11-2.9V19.57c0-0.36-0.13-0.67-0.4-0.93
		C25.2,18.38,24.89,18.25,24.53,18.25L24.53,18.25z"/>
</g>
</svg>
