<?xml version="1.0" encoding="utf-8"?>
<!-- Generator: Adobe Illustrator 24.3.0, SVG Export Plug-In . SVG Version: 6.00 Build 0)  -->
<svg version="1.1" id="图层_1" xmlns="http://www.w3.org/2000/svg" xmlns:xlink="http://www.w3.org/1999/xlink" x="0px" y="0px"
	 viewBox="0 0 49.04 39.34" style="enable-background:new 0 0 49.04 39.34;" xml:space="preserve">
<style type="text/css">
	.st0{fill:#FFFFFF;}
</style>
<g>
	<path class="st0" d="M49.04,19.67c0,0.42-0.08,0.82-0.24,1.2c-0.16,0.38-0.45,0.78-0.87,1.2L32.12,38.34
		c-0.3,0.32-0.62,0.57-0.98,0.74s-0.77,0.26-1.24,0.26c-0.84,0-1.54-0.28-2.11-0.85c-0.57-0.57-0.85-1.28-0.85-2.15
		c0-0.99,0.35-1.77,1.04-2.33l8.41-8.08l3.33-3.15L32.49,23H3.3c-0.91,0-1.69-0.33-2.33-0.98C0.32,21.37,0,20.58,0,19.67
		c0-0.91,0.32-1.7,0.96-2.37c0.64-0.67,1.42-1,2.33-1h29.19l7.19,0.26l-3.3-3.15l-8.41-8.08c-0.69-0.57-1.04-1.33-1.04-2.3
		c0-0.84,0.28-1.56,0.85-2.15C28.35,0.3,29.05,0,29.89,0c0.47,0,0.88,0.09,1.24,0.26S31.82,0.68,32.12,1l15.82,16.22
		c0.42,0.42,0.71,0.82,0.87,1.2S49.04,19.23,49.04,19.67L49.04,19.67z"/>
</g>
</svg>
