<?xml version="1.0" encoding="utf-8"?>
<!-- Generator: Adobe Illustrator 24.3.0, SVG Export Plug-In . SVG Version: 6.00 Build 0)  -->
<svg version="1.1" id="图层_1" xmlns="http://www.w3.org/2000/svg" xmlns:xlink="http://www.w3.org/1999/xlink" x="0px" y="0px"
	 viewBox="0 0 44.2 43.6" style="enable-background:new 0 0 44.2 43.6;" xml:space="preserve">
<style type="text/css">
	.st0{fill:#E94709;}
</style>
<path class="st0" d="M43.2,20.4l-1.9-0.6c0-0.4-0.1-0.9-0.2-1.3c-0.1-0.4-0.2-0.9-0.3-1.3l1.6-1.2c0.5-0.4,0.6-1,0.5-1.7
	c-0.1-0.3-0.3-0.6-0.5-0.8c-0.3-0.2-0.6-0.3-0.9-0.3l-2,0.2c-0.4-0.8-0.8-1.6-1.3-2.4l1.1-1.6c0.3-0.6,0.3-1.2-0.1-1.8
	c-0.2-0.3-0.5-0.4-0.8-0.5c-0.3-0.1-0.6-0.1-1,0l-1.8,0.8c-0.3-0.3-0.6-0.6-1-0.9c-0.4-0.3-0.7-0.6-1.1-0.8l0.5-1.9
	C34,3.6,33.8,3,33.2,2.6c-0.3-0.2-0.6-0.2-0.9-0.2c-0.3,0-0.6,0.1-0.9,0.4L30,4.2c-0.4-0.2-0.8-0.3-1.3-0.5
	c-0.4-0.2-0.9-0.3-1.3-0.4l-0.2-2C27.1,0.6,26.6,0.2,26,0C25.6,0,25.3,0,25,0.1c-0.3,0.1-0.5,0.3-0.7,0.7l-0.9,1.8
	c-0.2,0-0.4,0-0.7,0s-0.5,0-0.7,0s-0.4,0-0.7,0s-0.4,0-0.7,0l-0.9-1.8C19.5,0.2,19-0.1,18.3,0c-0.8,0.1-1.2,0.6-1.2,1.2l-0.2,2
	c-0.4,0.1-0.9,0.3-1.3,0.4c-0.4,0.2-0.8,0.3-1.3,0.5l-1.4-1.4c-0.5-0.5-1.1-0.5-1.7-0.2c-0.7,0.4-0.9,0.9-0.8,1.6l0.5,2
	C10,6.7,9.3,7.3,8.7,7.9L6.9,7.1C6.2,6.9,5.6,7,5.2,7.6C5,7.8,4.8,8.1,4.8,8.4c0,0.3,0,0.6,0.2,0.9L6.1,11c-0.2,0.4-0.5,0.7-0.7,1.1
	S5,12.9,4.7,13.3l-2-0.1c-0.7,0-1.2,0.3-1.5,1c-0.2,0.7-0.1,1.3,0.5,1.7l1.6,1.2C3.2,18,3,18.9,3,19.8L1,20.4c-0.7,0.2-1,0.7-1,1.4
	c0,0.7,0.3,1.2,1,1.4L3,23.8c0.1,0.4,0.1,0.9,0.2,1.3c0.1,0.4,0.2,0.9,0.3,1.3l-1.6,1.2c-0.6,0.4-0.7,1-0.5,1.6
	c0.1,0.3,0.3,0.6,0.6,0.8c0.3,0.2,0.6,0.3,0.9,0.3l1.9-0.2C5,30.6,5.2,31,5.4,31.4s0.5,0.8,0.7,1.2L5,34.3c-0.4,0.6-0.3,1.2,0.1,1.7
	c0.5,0.6,1.1,0.7,1.8,0.5l1.8-0.8c0.3,0.3,0.7,0.6,1,0.9c0.3,0.3,0.7,0.6,1.1,0.8l-0.5,2c-0.2,0.7,0.1,1.2,0.7,1.6
	c0.7,0.3,1.3,0.3,1.8-0.2l1.4-1.4c0.4,0.2,0.8,0.4,1.2,0.5c0.4,0.2,0.8,0.3,1.3,0.4l0.3,2c0.1,0.7,0.5,1.1,1.2,1.2
	c0.7,0.1,1.3-0.2,1.6-0.8l0.9-1.8c0.2,0,0.4,0.1,0.7,0.1c0.2,0,0.5,0,0.7,0s0.4,0,0.7,0c0.2,0,0.4,0,0.6-0.1l0.9,1.8
	c0.3,0.6,0.9,0.9,1.6,0.8c0.7-0.1,1.2-0.6,1.2-1.3l0.2-2c0.4-0.1,0.9-0.3,1.3-0.4c0.4-0.2,0.8-0.3,1.3-0.5l1.5,1.4
	c0.5,0.5,1.1,0.5,1.7,0.2c0.6-0.4,0.9-0.9,0.7-1.6l-0.5-2c0.4-0.2,0.7-0.5,1.1-0.8s0.7-0.6,1-0.9l1.9,0.8c0.7,0.3,1.2,0.1,1.7-0.4
	c0.2-0.3,0.4-0.5,0.4-0.9c0-0.3,0-0.6-0.2-0.9l-1.1-1.7c0.3-0.4,0.5-0.7,0.7-1.1c0.2-0.4,0.4-0.8,0.6-1.2l2,0.1c0.7,0,1.2-0.3,1.4-1
	c0.2-0.7,0.1-1.2-0.5-1.7l-1.6-1.2c0.1-0.4,0.2-0.9,0.3-1.3c0.1-0.4,0.1-0.9,0.2-1.3l1.9-0.6c0.7-0.2,1-0.7,1-1.4
	C44.2,21.1,43.9,20.6,43.2,20.4z M12.7,34.5c-2-1.4-3.5-3.3-4.7-5.5s-1.8-4.6-1.8-7.3c0-2.6,0.6-5.1,1.8-7.3
	c1.2-2.2,2.8-4.1,4.7-5.5l5.4,9.3c-0.9,1-1.4,2.2-1.4,3.6c0,1.4,0.5,2.6,1.5,3.6L12.7,34.5z M36.3,28.9c-0.9,1.7-2,3.3-3.5,4.6
	c-1.4,1.3-3.1,2.3-4.9,3.1c-1.8,0.7-3.8,1.1-5.8,1.1c-2.4,0-4.6-0.5-6.7-1.5L21,27c0.4,0.1,0.8,0.1,1.1,0.1c1.2,0,2.3-0.4,3.2-1.1
	c0.9-0.7,1.6-1.6,1.9-2.7h10.7C37.7,25.3,37.2,27.2,36.3,28.9z M19.9,21.8c0-0.6,0.2-1.1,0.6-1.5s0.9-0.6,1.5-0.6
	c0.6,0,1.1,0.2,1.5,0.6s0.6,0.9,0.6,1.5c0,0.6-0.2,1.1-0.6,1.5c-0.4,0.4-0.9,0.6-1.5,0.6c-0.6,0-1.1-0.2-1.5-0.6
	C20.1,22.9,19.9,22.4,19.9,21.8z M27.1,20.2c-0.3-1.1-1-2-1.9-2.7c-0.9-0.7-2-1.1-3.2-1.1c-0.4,0-0.8,0.1-1.2,0.2l-5.4-9.3
	c1-0.5,2.1-0.8,3.2-1.1c1.1-0.3,2.3-0.4,3.5-0.4c2.1,0,4,0.4,5.8,1.1c1.8,0.7,3.4,1.8,4.9,3c1.4,1.3,2.6,2.8,3.5,4.5
	c0.9,1.7,1.4,3.6,1.6,5.6H27.1z"/>
</svg>
