<?xml version="1.0" encoding="utf-8"?>
<!-- Generator: Adobe Illustrator 24.3.0, SVG Export Plug-In . SVG Version: 6.00 Build 0)  -->
<svg version="1.1" id="图层_1" xmlns="http://www.w3.org/2000/svg" xmlns:xlink="http://www.w3.org/1999/xlink" x="0px" y="0px"
	 viewBox="0 0 44 43.6" style="enable-background:new 0 0 44 43.6;" xml:space="preserve">
<style type="text/css">
	.st0{fill:#E94709;}
</style>
<g>
	<path class="st0" d="M29.7,43.6c0.7,0,1.2-0.2,1.7-0.7c0.5-0.4,0.7-1,0.7-1.7c0-0.6-0.2-1.2-0.7-1.6c-0.5-0.4-1-0.7-1.7-0.7h-5.2
		V18.5c0-0.9-0.2-1.6-0.6-2.1c-0.4-0.5-1.1-0.8-1.9-0.8h-7.2c-0.7,0-1.2,0.2-1.7,0.7c-0.5,0.4-0.7,1-0.7,1.6c0,0.7,0.2,1.2,0.7,1.7
		c0.5,0.4,1,0.7,1.7,0.7h4.6V39h-5.2c-0.7,0-1.2,0.2-1.7,0.7s-0.7,1-0.7,1.6c0,0.7,0.2,1.2,0.7,1.7s1,0.7,1.7,0.7H29.7z"/>
	<path class="st0" d="M20.7,8.9c1.3,0,2.3-0.4,3.2-1.3s1.3-1.9,1.3-3.1c0-1.3-0.4-2.3-1.3-3.2S22,0,20.7,0c-1.2,0-2.3,0.4-3.1,1.3
		c-0.9,0.9-1.3,1.9-1.3,3.2c0,1.2,0.4,2.3,1.3,3.1C18.4,8.5,19.5,8.9,20.7,8.9L20.7,8.9z"/>
</g>
</svg>
