<?xml version="1.0" encoding="utf-8"?>
<!-- Generator: Adobe Illustrator 24.3.0, SVG Export Plug-In . SVG Version: 6.00 Build 0)  -->
<svg version="1.1" id="图层_1" xmlns="http://www.w3.org/2000/svg" xmlns:xlink="http://www.w3.org/1999/xlink" x="0px" y="0px"
	 viewBox="0 0 44 43.6" style="enable-background:new 0 0 44 43.6;" xml:space="preserve">
<style type="text/css">
	.st0{fill:#E94709;}
</style>
<g>
	<path class="st0" d="M1.6,3.5h40.8c0.5,0,0.8-0.2,1.1-0.5S44,2.2,44,1.7c0-0.5-0.2-0.9-0.5-1.2C43.3,0.2,42.9,0,42.4,0H1.6
		C1.1,0,0.7,0.2,0.4,0.5C0.1,0.8,0,1.2,0,1.7C0,2.2,0.1,2.7,0.4,3C0.7,3.3,1.1,3.5,1.6,3.5z"/>
	<path class="st0" d="M4.1,19.9h4.2c1.4,0,2.4-0.3,3.1-1c0.7-0.7,1-1.7,1-3.2v-4.1c0-1.4-0.3-2.5-1-3.2c-0.7-0.7-1.7-1-3.1-1H4.1
		c-1.4,0-2.4,0.3-3.1,1c-0.7,0.7-1,1.8-1,3.2v4.1c0,1.4,0.3,2.5,1,3.2C1.7,19.5,2.7,19.9,4.1,19.9z M3.2,11.6c0-0.6,0.3-1,0.9-1h4.2
		c0.6,0,1,0.3,1,1v4.1c0,0.7-0.3,1-1,1H4.1c-0.6,0-0.9-0.3-0.9-1V11.6z"/>
	<path class="st0" d="M19.9,7.4c-1.4,0-2.4,0.3-3.1,1c-0.7,0.7-1,1.8-1,3.2v4.1c0,1.4,0.3,2.5,1,3.2c0.7,0.7,1.7,1,3.1,1h4.2
		c1.4,0,2.4-0.3,3.1-1c0.7-0.7,1-1.7,1-3.2v-4.1c0-1.4-0.3-2.5-1-3.2c-0.7-0.7-1.7-1-3.1-1H19.9z M25,11.6v4.1c0,0.7-0.3,1-0.9,1
		h-4.2c-0.6,0-1-0.3-1-1v-4.1c0-0.6,0.3-1,1-1h4.2C24.7,10.6,25,10.9,25,11.6z"/>
	<path class="st0" d="M39.9,7.4h-4.3c-1.4,0-2.4,0.3-3.1,1c-0.7,0.7-1,1.8-1,3.2v4.1c0,1.4,0.3,2.5,1,3.2c0.7,0.7,1.7,1,3.1,1h4.3
		c1.4,0,2.4-0.3,3.1-1s1-1.7,1-3.2v-4.1c0-1.4-0.3-2.5-1-3.2S41.3,7.4,39.9,7.4z M40.8,15.7c0,0.7-0.3,1-0.9,1h-4.2
		c-0.6,0-0.9-0.3-0.9-1v-4.1c0-0.6,0.3-1,0.9-1h4.2c0.6,0,0.9,0.3,0.9,1V15.7z"/>
	<path class="st0" d="M42.4,23.7H1.6c-0.5,0-0.9,0.2-1.2,0.5C0.1,24.5,0,24.9,0,25.5c0,0.5,0.1,0.9,0.4,1.2c0.3,0.3,0.7,0.5,1.2,0.5
		h40.8c0.5,0,0.8-0.2,1.1-0.5c0.3-0.3,0.5-0.7,0.5-1.2c0-0.5-0.2-0.9-0.5-1.3S42.9,23.7,42.4,23.7z"/>
	<path class="st0" d="M8.4,31.1H4.1c-1.4,0-2.4,0.4-3.1,1.1c-0.7,0.7-1,1.8-1,3.2v4.1c0,1.4,0.3,2.5,1,3.2c0.7,0.7,1.7,1.1,3.1,1.1
		h4.3c1.4,0,2.4-0.4,3.1-1.1c0.7-0.7,1-1.8,1-3.2v-4.1c0-1.4-0.3-2.5-1-3.2S9.8,31.1,8.4,31.1z M9.3,39.4c0,0.6-0.3,1-0.9,1H4.1
		c-0.6,0-0.9-0.3-0.9-1v-4.1c0-0.7,0.3-1,0.9-1h4.2c0.6,0,0.9,0.3,0.9,1V39.4z"/>
	<path class="st0" d="M24.2,31.1h-4.3c-1.4,0-2.4,0.4-3.1,1.1c-0.7,0.7-1,1.8-1,3.2v4.1c0,1.4,0.3,2.5,1,3.2
		c0.7,0.7,1.7,1.1,3.1,1.1h4.3c1.4,0,2.4-0.4,3.1-1.1c0.7-0.7,1-1.8,1-3.2v-4.1c0-1.4-0.3-2.5-1-3.2C26.5,31.4,25.5,31.1,24.2,31.1z
		 M25,39.4c0,0.6-0.3,1-0.9,1h-4.2c-0.6,0-0.9-0.3-0.9-1v-4.1c0-0.7,0.3-1,0.9-1h4.2c0.6,0,0.9,0.3,0.9,1V39.4z"/>
	<path class="st0" d="M39.9,31.1h-4.3c-1.4,0-2.4,0.4-3.1,1.1c-0.7,0.7-1,1.8-1,3.2v4.1c0,1.4,0.3,2.5,1,3.2
		c0.7,0.7,1.7,1.1,3.1,1.1h4.3c1.4,0,2.4-0.4,3.1-1.1c0.7-0.7,1-1.8,1-3.2v-4.1c0-1.4-0.3-2.5-1-3.2C42.3,31.4,41.3,31.1,39.9,31.1z
		 M40.8,39.4c0,0.6-0.3,1-0.9,1h-4.2c-0.6,0-0.9-0.3-0.9-1v-4.1c0-0.7,0.3-1,0.9-1h4.2c0.6,0,0.9,0.3,0.9,1V39.4z"/>
</g>
</svg>
