<?xml version="1.0" encoding="utf-8"?>
<!-- Generator: Adobe Illustrator 24.3.0, SVG Export Plug-In . SVG Version: 6.00 Build 0)  -->
<svg version="1.1" id="图层_1" xmlns="http://www.w3.org/2000/svg" xmlns:xlink="http://www.w3.org/1999/xlink" x="0px" y="0px"
	 viewBox="0 0 45.1 43.6" style="enable-background:new 0 0 45.1 43.6;" xml:space="preserve">
<style type="text/css">
	.st0{fill:#E94709;}
</style>
<g>
	<path class="st0" d="M1,17.2c-0.7,0.6-1,1.5-1,2.6v18.4c0,0.8,0.3,1.4,0.7,1.8s1.1,0.6,1.8,0.6c0.7,0,1.3-0.2,1.8-0.6
		c0.5-0.4,0.7-1,0.7-1.8v-22H3.8C2.6,16.3,1.7,16.6,1,17.2z"/>
	<path class="st0" d="M43.5,1.5c-1-1-2.6-1.5-4.6-1.5H14.8c-2.1,0-3.6,0.5-4.6,1.5c-1,1-1.5,2.5-1.5,4.5v33.5c0,1-0.2,1.8-0.5,2.5
		c-0.3,0.6-0.9,1.1-1.7,1.5h32.4c2,0,3.6-0.5,4.6-1.5c1-1,1.5-2.5,1.5-4.5V6.1C45.1,4,44.5,2.5,43.5,1.5z M25.4,31.6
		c0,0.7-0.2,1.3-0.6,1.7c-0.4,0.4-1,0.6-1.7,0.6h-5.2c-0.7,0-1.3-0.2-1.7-0.6c-0.4-0.4-0.6-1-0.6-1.7v-5.1c0-0.7,0.2-1.3,0.6-1.7
		c0.4-0.4,1-0.6,1.7-0.6H23c0.7,0,1.3,0.2,1.7,0.6c0.4,0.4,0.6,1,0.6,1.7V31.6z M37.8,33.6c-0.2,0.2-0.5,0.3-0.9,0.3h-7.3
		c-0.4,0-0.7-0.1-0.9-0.3c-0.2-0.2-0.4-0.5-0.4-0.9c0-0.4,0.1-0.7,0.4-0.9c0.2-0.3,0.6-0.4,0.9-0.4h7.3c0.4,0,0.7,0.1,0.9,0.4
		s0.3,0.6,0.3,0.9C38.1,33.1,38,33.4,37.8,33.6z M37.8,26.4c-0.2,0.2-0.5,0.4-0.9,0.4h-7.3c-0.4,0-0.7-0.1-0.9-0.4
		c-0.2-0.2-0.4-0.5-0.4-0.9s0.1-0.7,0.4-0.9c0.2-0.3,0.6-0.4,0.9-0.4h7.3c0.4,0,0.7,0.1,0.9,0.4c0.2,0.3,0.3,0.6,0.3,0.9
		S38,26.1,37.8,26.4z M37.8,18.9c-0.2,0.2-0.6,0.4-0.9,0.4h-20c-0.4,0-0.7-0.1-1-0.4c-0.2-0.2-0.4-0.5-0.4-0.9
		c0-0.4,0.1-0.7,0.4-0.9c0.2-0.2,0.6-0.4,1-0.4h20c0.4,0,0.7,0.1,0.9,0.4c0.2,0.2,0.4,0.6,0.4,0.9C38.2,18.4,38,18.7,37.8,18.9z
		 M37.8,11.6c-0.2,0.2-0.6,0.4-0.9,0.4h-20c-0.4,0-0.7-0.1-1-0.4c-0.2-0.2-0.4-0.6-0.4-0.9c0-0.4,0.1-0.6,0.4-0.9
		c0.2-0.2,0.6-0.3,1-0.3h20c0.4,0,0.7,0.1,0.9,0.3c0.2,0.2,0.4,0.5,0.4,0.9C38.2,11.1,38,11.4,37.8,11.6z"/>
</g>
</svg>
