<?xml version="1.0" encoding="utf-8"?>
<!-- Generator: Adobe Illustrator 24.3.0, SVG Export Plug-In . SVG Version: 6.00 Build 0)  -->
<svg version="1.1" id="图层_1" xmlns="http://www.w3.org/2000/svg" xmlns:xlink="http://www.w3.org/1999/xlink" x="0px" y="0px"
	 viewBox="0 0 59 39.4" style="enable-background:new 0 0 59 39.4;" xml:space="preserve">
<style type="text/css">
	.st0{fill:#E94709;}
</style>
<g>
	<path class="st0" d="M58.1,32.8c-0.5-1.2-1.3-2.4-2.4-3.6c-1.1-1.2-2.3-2.3-3.9-3.2s-3.2-1.7-5.1-2.3c-1.9-0.5-4-0.8-6.3-0.8
		c-2.3,0-4.4,0.3-6.3,0.8s-3.6,1.3-5.1,2.3c-1.5,0.9-2.8,2-3.7,3.2c-1.1,1.2-1.9,2.4-2.4,3.6c-0.5,1.2-0.8,2.4-0.8,3.5
		c0,2.1,1.6,3.2,4.8,3.2h27.2c3.2,0,4.8-1.1,4.8-3.2C58.9,35.2,58.6,34,58.1,32.8z M55.7,36.5c-0.1,0.1-0.4,0.1-0.8,0.1H26.2
		c-0.4,0-0.7,0-0.8-0.1c-0.1-0.1-0.3-0.3-0.3-0.7c0-0.8,0.3-1.6,0.7-2.5s1.1-1.9,1.9-2.8s1.9-1.7,3.2-2.5c1.2-0.8,2.7-1.3,4.3-1.9
		c1.6-0.4,3.5-0.7,5.5-0.7c2,0,3.7,0.3,5.5,0.7c1.6,0.4,3.1,1.1,4.3,1.9c1.2,0.8,2.3,1.6,3.2,2.5c0.8,0.9,1.5,1.9,1.9,2.8
		c0.4,0.9,0.7,1.7,0.7,2.5C55.9,36.2,55.9,36.4,55.7,36.5z"/>
	<path class="st0" d="M34.2,17c0.8,0.9,1.7,1.6,2.9,2.1s2.3,0.8,3.5,0.8c1.2,0,2.4-0.3,3.5-0.8c1.1-0.5,2-1.2,2.9-2.1
		c0.8-0.9,1.5-2,1.9-3.1c0.4-1.2,0.7-2.4,0.7-3.9c0-1.3-0.3-2.5-0.7-3.7s-1.1-2.1-2-3.1c-0.8-0.9-1.7-1.6-2.9-2s-2.1-0.8-3.5-0.8
		c-1.2,0-2.4,0.3-3.5,0.8c-1.1,0.5-2,1.2-2.9,2.1c-0.8,0.9-1.5,1.9-2,3.1c-0.4,1.2-0.7,2.4-0.7,3.7s0.3,2.7,0.7,3.9
		C32.7,15.1,33.2,16.1,34.2,17z M35.2,6.6c0.5-1.1,1.3-1.9,2.3-2.5s2-0.9,3.1-0.9c1.1,0,2.1,0.3,3.1,0.9s1.6,1.5,2.3,2.4
		c0.5,1.1,0.8,2.1,0.8,3.5s-0.3,2.5-0.8,3.6c-0.5,1.1-1.3,1.9-2.3,2.5c-0.9,0.7-2,0.9-3.1,0.9c-1.1,0-2.1-0.3-3.1-0.9
		c-0.9-0.7-1.6-1.5-2.3-2.5c-0.5-1.1-0.8-2.3-0.8-3.6C34.4,8.9,34.7,7.7,35.2,6.6z"/>
	<path class="st0" d="M6.7,28.6c1.2-0.9,2.7-1.7,4.3-2.4s3.3-0.8,5.1-0.8c0.9,0,2,0.1,2.8,0.3c0.9,0.1,1.7,0.4,2.7,0.8
		c0.8,0.3,1.6,0.7,2.3,1.2c0.3-0.4,0.7-0.7,0.9-1.1c0.4-0.3,0.7-0.7,1.1-0.9c-0.9-0.7-1.9-1.2-2.9-1.6c-1.1-0.4-2.1-0.8-3.3-0.9
		c-1.2-0.3-2.4-0.3-3.6-0.3c-2.3,0-4.4,0.4-6.3,1.1c-2,0.8-3.6,1.7-5.1,3.1c-1.5,1.2-2.5,2.7-3.3,4.3C0.4,32.8,0,34.4,0,36.1
		c0,1.1,0.4,2,1.1,2.5s1.6,0.8,2.9,0.8h17.2c-0.3-0.1-0.5-0.4-0.8-0.7c-0.3-0.3-0.4-0.5-0.5-0.9s-0.1-0.7-0.1-1.1H3.6
		c-0.3,0-0.5,0-0.7-0.1c-0.1-0.3-0.3-0.4-0.3-0.7c0-1.3,0.4-2.7,1.1-4C4.5,30.6,5.5,29.6,6.7,28.6z"/>
	<path class="st0" d="M12,19c1.2,0.8,2.5,1.2,4,1.2s2.8-0.4,4-1.2c1.2-0.8,2.1-1.9,2.8-3.1c0.7-1.3,1.1-2.8,1.1-4.4
		c0-1.2-0.3-2.3-0.7-3.2s-0.9-1.9-1.7-2.7c-0.7-0.8-1.6-1.3-2.5-1.9c-0.8-0.5-1.9-0.7-2.9-0.7s-2.1,0.3-3.1,0.7s-1.7,1.1-2.4,1.7
		C9.9,6.3,9.2,7.3,8.8,8.2c-0.4,1.1-0.7,2.1-0.7,3.3c0,1.6,0.4,3.1,1.1,4.4C9.9,17.1,10.9,18.2,12,19z M11.6,8.6
		c0.4-0.8,1.1-1.5,1.9-2c0.8-0.5,1.6-0.8,2.5-0.8s1.9,0.3,2.5,0.8c0.7,0.5,1.3,1.2,1.9,2c0.4,0.8,0.7,1.9,0.7,2.9s-0.3,2.1-0.7,3.1
		c-0.4,0.9-1.1,1.6-1.9,2.1c-0.8,0.5-1.6,0.8-2.5,0.8s-1.7-0.3-2.5-0.8s-1.3-1.2-1.9-2.1s-0.7-2-0.7-3.1S11.1,9.5,11.6,8.6z"/>
</g>
</svg>
