<?xml version="1.0" encoding="utf-8"?>
<!-- Generator: Adobe Illustrator 24.3.0, SVG Export Plug-In . SVG Version: 6.00 Build 0)  -->
<svg version="1.1" id="图层_1" xmlns="http://www.w3.org/2000/svg" xmlns:xlink="http://www.w3.org/1999/xlink" x="0px" y="0px"
	 viewBox="0 0 45.9 43.6" style="enable-background:new 0 0 45.9 43.6;" xml:space="preserve">
<style type="text/css">
	.st0{fill:#E94709;}
</style>
<path class="st0" d="M44.3,8.3c-1.1-1-2.6-1.6-4.7-1.6h-1.7V6c0-2.1-0.5-3.6-1.5-4.6S33.9,0,31.9,0H14c-1.8,0-3.3,0.5-4.4,1.5
	C8.5,2.4,8,3.9,8,6v0.7H6.3c-1.9,0-3.4,0.5-4.6,1.6C0.6,9.3,0,10.8,0,12.9v18.7c0,2,0.5,3.6,1.6,4.6c1.1,1,2.6,1.6,4.7,1.6h1.9v2.2
	c0,1.3,0.3,2.2,0.9,2.8c0.6,0.6,1.5,0.9,2.8,0.9h22.2c1.2,0,2.1-0.3,2.8-0.9c0.6-0.6,0.9-1.5,0.9-2.8v-2.2h1.9c2,0,3.6-0.5,4.7-1.6
	c1.1-1,1.6-2.6,1.6-4.6V12.9C45.9,10.8,45.4,9.3,44.3,8.3z M11.7,5.7c0-0.7,0.2-1.3,0.6-1.7c0.4-0.4,1-0.6,1.7-0.6h18
	c0.7,0,1.3,0.2,1.7,0.6c0.4,0.4,0.6,1,0.6,1.7v1H11.7V5.7z M33.9,38.9c0,0.4-0.1,0.7-0.3,0.9c-0.2,0.2-0.5,0.3-0.8,0.3H13.1
	c-0.4,0-0.6-0.1-0.8-0.3c-0.2-0.2-0.3-0.5-0.3-0.9V24.2c0-0.4,0.1-0.6,0.3-0.8c0.2-0.2,0.5-0.3,0.8-0.3h19.7c0.4,0,0.6,0.1,0.8,0.3
	c0.2,0.2,0.3,0.5,0.3,0.8V38.9z M42.1,31.8c0,0.8-0.2,1.4-0.6,1.8c-0.4,0.4-1,0.6-1.8,0.6h-1.9V23.2c0-1.3-0.3-2.2-0.9-2.8
	c-0.6-0.6-1.5-0.9-2.8-0.9H11.9c-1.1,0-2,0.3-2.7,0.9c-0.7,0.6-1,1.5-1,2.8v10.9H6.2c-0.8,0-1.4-0.2-1.8-0.6c-0.4-0.4-0.6-1-0.6-1.8
	V12.7c0-0.8,0.2-1.4,0.6-1.8c0.4-0.4,1-0.6,1.8-0.6h33.5c0.8,0,1.4,0.2,1.8,0.6c0.4,0.4,0.6,1,0.6,1.8V31.8z"/>
<path class="st0" d="M29.5,29.5c0.4,0,0.7-0.1,1-0.4c0.3-0.3,0.4-0.6,0.4-1c0-0.4-0.1-0.7-0.4-1c-0.3-0.3-0.6-0.4-1-0.4H16.4
	c-0.4,0-0.8,0.1-1,0.4c-0.3,0.3-0.4,0.6-0.4,1c0,0.4,0.1,0.8,0.4,1c0.3,0.3,0.6,0.4,1,0.4H29.5z"/>
<path class="st0" d="M29.5,36.4c0.4,0,0.7-0.1,1-0.4c0.3-0.3,0.4-0.6,0.4-1c0-0.4-0.1-0.8-0.4-1s-0.6-0.4-1-0.4H16.4
	c-0.4,0-0.8,0.1-1,0.4c-0.3,0.3-0.4,0.6-0.4,1c0,0.4,0.1,0.7,0.4,1c0.3,0.3,0.6,0.4,1,0.4H29.5z"/>
</svg>
