<?xml version="1.0" encoding="utf-8"?>
<!-- Generator: Adobe Illustrator 24.3.0, SVG Export Plug-In . SVG Version: 6.00 Build 0)  -->
<svg version="1.1" id="图层_1" xmlns="http://www.w3.org/2000/svg" xmlns:xlink="http://www.w3.org/1999/xlink" x="0px" y="0px"
	 viewBox="0 0 49.04 62.77" style="enable-background:new 0 0 49.04 62.77;" xml:space="preserve">
<style type="text/css">
	.st0{fill:#E94709;}
</style>
<g>
	<path class="st0" d="M8.79,62.77c-2.85,0-5.02-0.75-6.53-2.24C0.75,59.04,0,56.85,0,53.98V26.37c0-2.87,0.75-5.06,2.26-6.55
		c1.51-1.49,3.68-2.24,6.53-2.24l9.12,0.04v4.97H8.87c-2.6,0-3.9,1.33-3.9,3.98v27.24c0,2.68,1.3,4.02,3.9,4.02h31.26
		c2.6,0,3.9-1.34,3.9-4.02V26.57c0-2.65-1.3-3.98-3.9-3.98h-9v-4.97l9.04-0.04c2.9,0,5.11,0.74,6.61,2.22
		c1.51,1.48,2.26,3.67,2.26,6.57v27.61c0,2.9-0.76,5.09-2.28,6.57c-1.52,1.48-3.72,2.22-6.59,2.22H8.79L8.79,62.77z"/>
	<path class="st0" d="M24.5,41.13c-0.69,0-1.27-0.24-1.74-0.7c-0.47-0.47-0.7-1.05-0.7-1.74V9.95l0.12-2.61l-2.53,2.61l-3.11,3.23
		c-0.44,0.47-1.04,0.7-1.78,0.7c-0.61,0-1.13-0.2-1.55-0.6s-0.64-0.92-0.64-1.55s0.25-1.2,0.75-1.7l9.45-9.2
		C23.26,0.28,23.82,0,24.46,0s1.22,0.28,1.74,0.83l9.49,9.25c0.25,0.25,0.44,0.5,0.56,0.77c0.12,0.26,0.19,0.56,0.19,0.89
		c0,0.64-0.21,1.15-0.62,1.55c-0.41,0.4-0.97,0.6-1.66,0.6c-0.72,0-1.3-0.24-1.74-0.7l-3.15-3.23l-2.4-2.61l0.08,2.61v28.73
		c0,0.69-0.24,1.27-0.7,1.74C25.77,40.89,25.19,41.13,24.5,41.13L24.5,41.13z"/>
</g>
</svg>
