<?xml version="1.0" encoding="utf-8"?>
<!-- Generator: Adobe Illustrator 24.3.0, SVG Export Plug-In . SVG Version: 6.00 Build 0)  -->
<svg version="1.1" id="图层_1" xmlns="http://www.w3.org/2000/svg" xmlns:xlink="http://www.w3.org/1999/xlink" x="0px" y="0px"
	 viewBox="0 0 43.62 43.59" style="enable-background:new 0 0 43.62 43.59;" xml:space="preserve">
<style type="text/css">
	.st0{fill:#E94709;}
</style>
<g>
	<path class="st0" d="M32.54,43.59c2.03,0,3.63-0.6,4.79-1.79c1.16-1.19,1.74-2.93,1.74-5.2V13.64l-3.91,3.98v18.82
		c0,1.04-0.25,1.83-0.76,2.39c-0.51,0.55-1.14,0.83-1.89,0.83H7.12c-1.02,0-1.79-0.28-2.34-0.83s-0.81-1.35-0.81-2.39V11.61
		c0-1.04,0.27-1.83,0.81-2.39S6.11,8.4,7.12,8.4h19.02l3.98-3.94H7.06c-2.28,0-4.02,0.6-5.24,1.81S0,9.21,0,11.48V36.6
		c0,2.28,0.61,4.01,1.82,5.2c1.22,1.19,2.96,1.79,5.24,1.79H32.54z"/>
	<path class="st0" d="M19.62,27.42L39.47,7.57l-3.45-3.35L16.24,24.07l-1.86,3.81c-0.2,0.4-0.14,0.75,0.18,1.04s0.67,0.37,1.04,0.22
		L19.62,27.42z"/>
	<path class="st0" d="M42.98,3.93c0.44-0.49,0.66-0.99,0.65-1.52c-0.01-0.53-0.2-0.98-0.58-1.36l-0.5-0.46
		C42.17,0.18,41.7-0.01,41.12,0c-0.57,0.01-1.08,0.24-1.52,0.68l-1.72,1.69l3.38,3.45L42.98,3.93z"/>
</g>
</svg>
